<?xml version="1.0" encoding="iso-8859-1"?>
<!-- Generator: Adobe Illustrator 19.0.0, SVG Export Plug-In . SVG Version: 6.00 Build 0)  -->
<svg version="1.1" id="Layer_1" xmlns="http://www.w3.org/2000/svg" xmlns:xlink="http://www.w3.org/1999/xlink" x="0px" y="0px"
	 viewBox="0 0 512.002 512.002" style="enable-background:new 0 0 512.002 512.002;" xml:space="preserve">
<g>
	<g>
		<path d="M222.073,383.919l-33.318-49.347l-25.777-122.468l-43.605,13.551l69.973-38.872c4.606-2.56,7.736-7.141,8.444-12.365
			l12.328-91.051c1.239-9.144-5.171-17.562-14.316-18.8c-9.143-1.243-17.561,5.172-18.8,14.316l-11.205,82.753l-62.654,34.807
			l18.844-16.291l-41.32,8.696c-14.709,3.097-24.124,17.531-21.029,32.24l27.345,129.914l-12.27,63.295l-36.765,64.37
			c-6.102,10.685-2.388,24.292,8.297,30.394c10.685,6.102,24.293,2.385,30.394-8.296l38.591-67.566
			c1.209-2.115,2.062-4.417,2.525-6.808l15.123-78.011l10.015-2.109l37.364,55.338l-13.105,84.699
			c-1.881,12.16,6.451,23.543,18.61,25.423c12.181,1.882,23.545-6.471,25.423-18.609l14.441-93.332
			C226.484,394.242,225.216,388.572,222.073,383.919z"/>
	</g>
</g>
<g>
	<g>
		<circle cx="99.953" cy="128.746" r="40.29"/>
	</g>
</g>
<g>
	<g>
		<path d="M319.893,18.636c-7.822-13.578-23.737-21.234-39.902-17.832c-20.108,4.233-32.979,23.965-28.746,44.073
			c4.233,20.109,23.965,32.978,44.073,28.746c7.301-1.536,13.64-5.123,18.56-10.022l-3.247-10.224
			C306.569,40.582,310.617,27.157,319.893,18.636z"/>
	</g>
</g>
<g>
	<g>
		<path d="M455.374,150.986l-29.079-6.12l10.801,14.072l-55.199-46.771l-23.489-73.96c-2.794-8.796-12.19-13.661-20.983-10.867
			c-8.796,2.793-13.66,12.186-10.867,20.982l24.945,78.544c0.951,2.994,2.727,5.66,5.124,7.69l58.87,49.881l-40.081-21.362
			L347.287,296.71l-33.318,49.348c-3.142,4.654-4.411,10.324-3.552,15.873l14.441,93.332c1.879,12.146,13.248,20.491,25.423,18.609
			c12.16-1.88,20.492-13.263,18.61-25.423l-13.105-84.699l37.363-55.339l9.787,2.061l29.137,182.754
			c1.938,12.161,13.367,20.429,25.508,18.494c12.151-1.937,20.43-13.358,18.493-25.508l-27.344-171.507l27.673-131.477
			C479.498,168.517,470.083,154.082,455.374,150.986z"/>
	</g>
</g>
<g>
	<g>
		<circle cx="436.09" cy="90.884" r="40.29"/>
	</g>
</g>
<g>
</g>
<g>
</g>
<g>
</g>
<g>
</g>
<g>
</g>
<g>
</g>
<g>
</g>
<g>
</g>
<g>
</g>
<g>
</g>
<g>
</g>
<g>
</g>
<g>
</g>
<g>
</g>
<g>
</g>
</svg>
