<svg id="Capa_1" enable-background="new 0 0 512 512" height="512" viewBox="0 0 512 512" width="512" xmlns="http://www.w3.org/2000/svg"><g><g><path d="m70.344 259.999c-38.955.189-70.344-32.038-70.344-70.994 0-4.973 4.032-9.005 9.005-9.005h.995c16.569 0 30-13.431 30-30v-99.161c0-27.379 21.66-50.311 49.034-50.83 28.011-.531 50.966 22.099 50.966 49.991v13.766l-25.91 180.704-3.48 2.485c-11.856 8.467-25.772 12.974-40.266 13.044z" fill="#ff8659"/><g><path d="m285 160h-180c-5.523 0-10-4.477-10-10v-18.9c0-55.181 44.235-100.781 99.416-101.098 55.407-.319 100.584 44.663 100.584 99.998v20c0 5.523-4.477 10-10 10z" fill="#ffc178"/><path d="m195 30.006v129.994h90c5.523 0 10-4.477 10-10v-20c0-55.14-44.86-99.994-100-99.994z" fill="#ff8659"/></g><path d="m285 335h-180c-52.383 0-95 42.617-95 95v5l60 77h250l60-77v-5c0-52.383-42.617-95-95-95z" fill="#7ed8f7"/><path d="m285 335h-90v177h125l60-77v-5c0-52.383-42.617-95-95-95z" fill="#6ba7ff"/><path d="m70 512h-45c-8.284 0-15-6.716-15-15v-62h60z" fill="#ffcbbc"/><path d="m320 435h60v62c0 8.284-6.716 15-15 15h-45z" fill="#f9a58b"/><path d="m195 405c-22.091 0-40-17.909-40-40v-90h80v90c0 22.091-17.909 40-40 40z" fill="#ffcbbc"/><path d="m195 405c22.091 0 40-17.909 40-40v-90h-40z" fill="#f9a58b"/><g><path d="m194.416 319.998c-55.181-.317-99.416-45.917-99.416-101.098v-67.9h15.279c23.62 0 45.214-13.345 55.777-34.472 3.685-7.37 14.203-7.37 17.888 0v.001c10.564 21.126 32.157 34.471 55.777 34.471h55.279v69c0 55.335-45.177 100.317-100.584 99.998z" fill="#ffddce"/><path d="m195 132.095v187.899c55.14-.001 100-44.854 100-99.994v-69h-55.279c-17.114 0-33.16-7.01-44.721-18.905z" fill="#ffcbbc"/></g></g><g><g><path d="m358.029 462.001c10.29 15.29 21.056 27.987 29.741 37.285 7.547 8.08 18.202 12.714 29.23 12.714s21.683-4.634 29.23-12.714c8.685-9.298 19.451-21.995 29.741-37.285l-1.971-24.001 19.351-5.999c10.842-22.286 18.649-47.782 18.649-75.001 0-27.218-7.807-52.713-18.648-74.999l-19.352-15.001 1.973-14.999c-10.29-15.291-21.057-27.988-29.742-37.287-7.548-8.08-18.203-12.714-29.231-12.714s-21.683 4.634-29.23 12.714c-8.686 9.298-19.452 21.996-29.742 37.287l1.972 19.999-19.352 10.001c-10.841 22.286-18.648 47.781-18.648 74.999 0 27.219 7.807 52.715 18.649 75.001l21.351 6.999z" fill="#a65d4e"/></g><path d="m446.23 499.286c8.685-9.298 19.451-21.995 29.741-37.285l-1.971-24.001 19.351-5.999c10.842-22.286 18.649-47.782 18.649-75.001 0-27.218-7.807-52.713-18.648-74.999l-19.352-15.001 1.973-14.999c-10.29-15.291-21.057-27.988-29.742-37.287-7.548-8.08-18.203-12.714-29.231-12.714v310c11.028 0 21.683-4.634 29.23-12.714z" fill="#784033"/><path d="m475.973 252.001h-117.946c-6.145 9.131-12.119 19.187-17.38 30h152.705c-5.26-10.813-11.234-20.869-17.379-30z" fill="#fff5f5"/><path d="m340.649 432.001c5.26 10.813 11.235 20.869 17.38 30h117.943c6.145-9.131 12.12-19.187 17.38-30z" fill="#fff5f5"/><path d="m417 282.001h76.352c-5.26-10.813-11.234-20.869-17.38-30h-58.972z" fill="#e1ebf0"/><path d="m417 462.001h58.971c6.145-9.131 12.12-19.187 17.38-30h-76.351z" fill="#e1ebf0"/><path d="m437 372h-5v-30h5c8.284 0 15-6.716 15-15s-6.716-15-15-15h-40c-8.284 0-15 6.716-15 15s6.716 15 15 15h5v30h-5c-8.284 0-15 6.716-15 15s6.716 15 15 15h40c8.284 0 15-6.716 15-15s-6.716-15-15-15z" fill="#fff5f5"/><path d="m437 342c8.284 0 15-6.716 15-15s-6.716-15-15-15h-20v90h20c8.284 0 15-6.716 15-15s-6.716-15-15-15h-5v-30z" fill="#e1ebf0"/></g></g></svg>