<svg id="Layer_1" enable-background="new 0 0 511.177 511.177" height="200" margin="0 auto" viewBox="0 0 511.177 511.177" width="200" xmlns="http://www.w3.org/2000/svg"><g><path d="m501.086 470.145c-18.442 0-28.367 6.802-36.342 12.268-7.146 4.897-12.789 8.765-25.036 8.765s-17.891-3.868-25.036-8.765c-7.975-5.466-17.9-12.268-36.342-12.268s-28.366 6.802-36.341 12.268c-7.145 4.897-12.789 8.765-25.035 8.765-12.245 0-17.888-3.868-25.033-8.765-7.974-5.466-17.899-12.268-36.34-12.268s-28.365 6.802-36.339 12.268c-7.144 4.897-12.787 8.765-25.031 8.765-12.245 0-17.888-3.868-25.033-8.765-7.974-5.466-17.899-12.268-36.34-12.268s-28.366 6.802-36.34 12.268c-7.145 4.897-12.788 8.765-25.034 8.765-12.245 0-17.888-3.868-25.032-8.765-7.974-5.466-17.898-12.268-36.34-12.268-5.523 0-10 4.477-10 10 0 5.522 4.477 10 10 10 12.245 0 17.888 3.868 25.032 8.765 7.974 5.466 17.898 12.268 36.339 12.268 18.442 0 28.366-6.802 36.34-12.268 7.145-4.897 12.788-8.765 25.033-8.765 12.246 0 17.889 3.868 25.034 8.765 7.974 5.466 17.898 12.268 36.34 12.268 18.44 0 28.365-6.802 36.339-12.268 7.144-4.897 12.787-8.765 25.032-8.765 12.246 0 17.889 3.868 25.034 8.765 7.974 5.466 17.898 12.268 36.34 12.268s28.367-6.802 36.341-12.268c7.145-4.897 12.789-8.765 25.034-8.765 12.247 0 17.89 3.868 25.036 8.765 7.975 5.466 17.9 12.268 36.343 12.268 18.442 0 28.367-6.802 36.342-12.268 7.145-4.897 12.789-8.765 25.036-8.765 5.523 0 10-4.478 10-10-.001-5.523-4.478-10-10.001-10z"/><ellipse cx="189.003" cy="36.921" rx="36.911" ry="36.911" transform="matrix(.908 -.419 .419 .908 1.935 82.645)"/><g><path d="m201.772 394.728h-35.58c4.449-2.247 8.139-6.043 10.151-11.027l38.335-94.987c2.897-7.178 1.672-15.362-3.198-21.378l-45.403-56.075 34.2-89.57c4.912-12.865-1.535-27.276-14.4-32.188-44.133-16.787-41.659-16.05-44.238-16.716l-58.663-30.446c-4.972-2.58-10.903-2.5-15.803.212l-58.455 32.357c-8.115 4.491-10.985 14.686-6.532 22.73 4.473 8.081 14.649 11.005 22.73 6.532l50.61-28.015 34.352 17.828-40.093 103.98c-5.304 13.756-3.234 29.267 5.493 41.15l33.826 46.063-43.146 80.485c-5.559 10.369-1.659 23.281 8.71 28.84.15.08.302.149.453.225h-75.03v29.407h202.096c8.356 0 15.084-6.97 14.687-15.414-.373-7.909-7.185-13.993-15.102-13.993zm-107.41 0c3.763-1.903 7.001-4.937 9.145-8.935l49.486-92.311c3.875-7.227 3.256-16.037-1.589-22.652l-31.377-42.841 6.908 2.638 43.539 53.772-33.641 83.356c-4.177 10.349.365 22.039 10.154 26.973z"/></g></g></svg>