<?xml version="1.0" encoding="iso-8859-1"?>
<!-- Generator: Adobe Illustrator 19.0.0, SVG Export Plug-In . SVG Version: 6.00 Build 0)  -->
<svg version="1.1" id="Layer_1" xmlns="http://www.w3.org/2000/svg" xmlns:xlink="http://www.w3.org/1999/xlink" x="0px" y="0px"
	 viewBox="0 0 512.001 512.001" style="enable-background:new 0 0 512.001 512.001;" xml:space="preserve">
<g>
	<g>
		<path d="M222.599,184.334c-3.906-5.568-11.586-6.913-17.151-3.005l-35.8,25.131c-46.306,2.368-43.297,2.111-45.004,2.55H72.32
			l-38.05-20.162l-7.551-41.77l22.592-34.79c11.245,2.169,25.039-4.858,33.688-18.177c10.541-16.234,9.445-35.657-2.452-43.381
			s-30.085-0.826-40.626,15.408c-8.162,12.569-9.341,27.047-3.938,36.53l-19.487,30.009c-1.567-0.357-3.231-0.41-4.912-0.106
			c-6.691,1.21-11.136,7.615-9.927,14.306l1.223,6.767l-1.556,2.397c-2.834,4.366-0.973,10.407,4.196,12.207l5.581,30.871
			c0.673,3.717,3.013,6.92,6.352,8.689l44.108,23.37c0.099,0.053,0.203,0.088,0.303,0.138v86.913L49.38,375.491l-38.008,64.155
			c-4.622,7.801-2.044,17.871,5.756,22.493c7.792,4.617,17.865,2.05,22.492-5.756l39.36-66.436c0.896-1.511,1.542-3.156,1.916-4.871
			l12.293-55.081h9.286l15.026,47.975l-1.326,69.735c-0.172,9.065,7.037,16.554,16.101,16.726c0.107,0.002,0.211,0.003,0.319,0.003
			c8.92-0.001,16.236-7.147,16.407-16.104l1.374-72.296c0.032-1.698-0.199-3.39-0.685-5.015l-15.071-50.4v-87.707l39.827-2.037
			c2.314-0.119,4.548-0.888,6.446-2.219l38.703-27.169C225.161,197.579,226.506,189.9,222.599,184.334z"/>
	</g>
</g>
<g>
	<g>
		<circle cx="100.473" cy="167.529" r="30.704"/>
	</g>
</g>
<g>
	<g>
		<path d="M492.266,288.499l-21.741,15.807c-10.629,7.727-25.51,5.376-33.238-5.253c-7.728-10.63-5.376-25.51,5.252-33.238
			l31.517-22.914l-3.399-30.535l13.552,36.947l-35.11,25.527c-5.646,4.104-6.895,12.008-2.79,17.654
			c4.107,5.648,12.009,6.893,17.654,2.791l42.831-31.14c4.568-3.321,6.378-9.271,4.433-14.574l-18.792-51.948
			c-2.067-5.713-7.806-9.241-13.836-8.508l-68.209,8.301c-4.777,0.581-8.845,3.746-10.584,8.234l-16.514,42.63l-44.333,10.707
			l-45.511-15.189c-0.718-11.334-10.897-22.825-25.835-27.81c-18.206-6.076-36.576-0.187-41.028,13.154
			c-4.453,13.341,6.697,29.082,24.904,35.158c14.097,4.704,28.286,2.231,36.043-5.315l40.446,13.498
			c0.049,0.691,0.141,1.386,0.31,2.082c1.639,6.791,8.472,10.955,15.253,9.317l52.133-12.591c4.035-0.975,7.336-3.869,8.828-7.744
			l7.104-18.456l8.896,71.409l-28.077,42.793c-1.771,2.699-2.729,5.848-2.761,9.076l-0.785,79.049
			c-0.093,9.306,7.376,16.924,16.682,17.017c0.057,0,0.114,0.001,0.17,0.001c9.228,0,16.754-7.435,16.846-16.682l0.736-74.105
			l31.109-47.414l8.588-1.07l15.249,124.469c1.131,9.238,9.537,15.807,18.774,14.676c9.238-1.131,15.808-9.537,14.676-18.774
			C511.705,445.532,495.623,315.452,492.266,288.499z"/>
	</g>
</g>
<g>
	<g>
		<circle cx="437.801" cy="153.308" r="29.224"/>
	</g>
</g>
<g>
	<g>
		<circle cx="251.747" cy="157.221" r="12.537"/>
	</g>
</g>
<g>
</g>
<g>
</g>
<g>
</g>
<g>
</g>
<g>
</g>
<g>
</g>
<g>
</g>
<g>
</g>
<g>
</g>
<g>
</g>
<g>
</g>
<g>
</g>
<g>
</g>
<g>
</g>
<g>
</g>
</svg>
